<?xml version="1.0" encoding="UTF-8" standalone="no"?>
<svg
   xmlns:dc="http://purl.org/dc/elements/1.1/"
   xmlns:cc="http://creativecommons.org/ns#"
   xmlns:rdf="http://www.w3.org/1999/02/22-rdf-syntax-ns#"
   xmlns:svg="http://www.w3.org/2000/svg"
   xmlns="http://www.w3.org/2000/svg"
   version="1.1"
   id="svg3727"
   width="243.479"
   height="243.479"
   viewBox="0 0 243.479 243.479">
  <metadata
     id="metadata3733">
    <rdf:RDF>
      <cc:Work
         rdf:about="">
        <dc:format>image/svg+xml</dc:format>
        <dc:type
           rdf:resource="http://purl.org/dc/dcmitype/StillImage" />
        <dc:title></dc:title>
      </cc:Work>
    </rdf:RDF>
  </metadata>
  <defs
     id="defs3731" />
  <path
     style="fill:#000000"
     d=""
     id="path3771" />
  <path
     style="fill:#000000"
     d=""
     id="path3769" />
  <g
     transform="translate(-2.0418432,-1.0885261)"
     id="layer7">
    <path
       style="stroke-width:1.00792599"
       d="M 123.78207,1.5890162 A 121.23941,121.23941 0 0 0 2.5418432,122.82925 121.23941,121.23941 0 0 0 9.8719213,164.02457 121.23941,121.23941 0 0 1 119.54379,89.596829 a 121.23941,121.23941 0 0 1 71.92774,-23.8125 121.23941,121.23941 0 0 1 2.69336,0.134766 A 121.23941,121.23941 0 0 1 221.79184,51.714016 121.23941,121.23941 0 0 0 123.78207,1.5890162 Z M 229.23715,63.313626 a 121.23941,121.23941 0 0 0 -55.40234,101.781254 121.23941,121.23941 0 0 0 15.78516,59.51758 121.23941,121.23941 0 0 0 55.40039,-101.78321 121.23941,121.23941 0 0 0 -15.78321,-59.515624 z m -49.75781,14.472656 a 121.23941,121.23941 0 0 0 -78.41992,113.369148 121.23941,121.23941 0 0 0 12.0664,52.3789 121.23941,121.23941 0 0 0 10.65625,0.5332 121.23941,121.23941 0 0 0 41.48829,-7.42773 121.23941,121.23941 0 0 1 -23.3086,-71.22656 121.23941,121.23941 0 0 1 37.51758,-87.626958 z m -78.86523,29.125008 a 121.23941,121.23941 0 0 0 -68.267579,95.30468 121.23941,121.23941 0 0 0 48.392578,33.80274 121.23941,121.23941 0 0 1 -10.50586,-48.9961 121.23941,121.23941 0 0 1 30.380861,-80.11132 z"
       id="circle3804" />
  </g>
</svg>
