<?xml version="1.0" encoding="UTF-8" standalone="no"?>
<svg
   xmlns:dc="http://purl.org/dc/elements/1.1/"
   xmlns:cc="http://creativecommons.org/ns#"
   xmlns:rdf="http://www.w3.org/1999/02/22-rdf-syntax-ns#"
   xmlns:svg="http://www.w3.org/2000/svg"
   xmlns="http://www.w3.org/2000/svg"
   version="1.1"
   id="svg3727"
   width="243.479"
   height="294.896"
   viewBox="0 0 243.479 294.89599">
  <metadata
     id="metadata3733">
    <rdf:RDF>
      <cc:Work
         rdf:about="">
        <dc:format>image/svg+xml</dc:format>
        <dc:type
           rdf:resource="http://purl.org/dc/dcmitype/StillImage" />
        <dc:title></dc:title>
      </cc:Work>
    </rdf:RDF>
  </metadata>
  <defs
     id="defs3731" />
  <path
     style="fill:#000000"
     d=""
     id="path3771" />
  <path
     style="fill:#000000"
     d=""
     id="path3769" />
  <flowRoot
     xml:space="preserve"
     id="flowRoot26"
     style="font-style:normal;font-weight:normal;font-size:40px;line-height:1.25;font-family:sans-serif;letter-spacing:0px;word-spacing:0px;fill:#000000;fill-opacity:1;stroke:none"
     transform="translate(0,-68.583004)"><flowRegion
       id="flowRegion28"><rect
         id="rect30"
         width="125.86626"
         height="77.376801"
         x="329.10934"
         y="235.54936" /></flowRegion><flowPara
       id="flowPara32" /></flowRoot>  <g
     id="layer2"
     transform="translate(0,-68.583004)">
    <g
       transform="translate(-2.0418432,67.493988)"
       id="layer7">
      <path
         style="stroke-width:1.00792599"
         d="M 123.78207,1.5890162 A 121.23941,121.23941 0 0 0 2.5418432,122.82925 121.23941,121.23941 0 0 0 9.8719213,164.02457 121.23941,121.23941 0 0 1 119.54379,89.596829 a 121.23941,121.23941 0 0 1 71.92774,-23.8125 121.23941,121.23941 0 0 1 2.69336,0.134766 A 121.23941,121.23941 0 0 1 221.79184,51.714016 121.23941,121.23941 0 0 0 123.78207,1.5890162 Z M 229.23715,63.313626 a 121.23941,121.23941 0 0 0 -55.40234,101.781254 121.23941,121.23941 0 0 0 15.78516,59.51758 121.23941,121.23941 0 0 0 55.40039,-101.78321 121.23941,121.23941 0 0 0 -15.78321,-59.515624 z m -49.75781,14.472656 a 121.23941,121.23941 0 0 0 -78.41992,113.369148 121.23941,121.23941 0 0 0 12.0664,52.3789 121.23941,121.23941 0 0 0 10.65625,0.5332 121.23941,121.23941 0 0 0 41.48829,-7.42773 121.23941,121.23941 0 0 1 -23.3086,-71.22656 121.23941,121.23941 0 0 1 37.51758,-87.626958 z m -78.86523,29.125008 a 121.23941,121.23941 0 0 0 -68.267579,95.30468 121.23941,121.23941 0 0 0 48.392578,33.80274 121.23941,121.23941 0 0 1 -10.50586,-48.9961 121.23941,121.23941 0 0 1 30.380861,-80.11132 z"
         id="circle3804" />
    </g>
    <g
       aria-label="mailfriends"
       transform="matrix(1.0148053,0,0,0.99619043,-1.6947723,65.163572)"
       style="font-style:normal;font-variant:normal;font-weight:normal;font-stretch:normal;font-size:48.18353653px;line-height:1.25;font-family:Sansation;-inkscape-font-specification:Sansation;letter-spacing:0px;word-spacing:0px;fill:#000000;fill-opacity:1;stroke:none;stroke-width:1.00382364"
       id="text13">
      <path
         d="m 2.1627521,298.95432 v -24.70348 h 2.9408897 l 0.7293407,3.10558 q 3.5525947,-3.10558 7.7404215,-3.10558 5.364183,0 7.316934,3.38791 4.023137,-3.38791 8.163909,-3.38791 8.516817,0 8.516817,9.38732 v 15.31616 h -4.352517 v -15.55143 q 0,-5.52887 -4.658369,-5.52887 -3.482013,0 -6.517012,3.19969 v 17.88061 H 17.69065 v -15.48085 q 0,-5.59945 -4.611315,-5.59945 -3.6702307,0 -6.5640661,3.19969 v 17.88061 z"
         style="stroke-width:1.00382364"
         id="path41" />
      <path
         d="m 43.429317,291.49622 q 0,-7.59926 10.022552,-7.59926 3.223215,0 6.44643,0.47054 v -2.32918 q 0,-4.25841 -6.658174,-4.25841 -3.811393,0 -7.811003,1.17636 v -3.52907 q 3.99961,-1.17636 7.811003,-1.17636 11.010691,0 11.010691,7.66984 v 17.03364 h -2.44682 l -1.505736,-2.44683 q -3.693757,2.44683 -8.046274,2.44683 -8.822669,0 -8.822669,-7.4581 z m 10.022552,-4.07019 q -5.670035,0 -5.670035,3.99961 0,3.99961 4.470152,3.99961 4.517207,0 7.646313,-2.39977 v -5.12891 q -3.223215,-0.47054 -6.44643,-0.47054 z"
         style="stroke-width:1.00382364"
         id="path43" />
      <path
         d="m 76.155535,274.25084 v 24.70348 h -4.352517 v -24.70348 z m 0,-8.9403 v 4.11724 h -4.352517 v -4.11724 z"
         style="stroke-width:1.00382364"
         id="path45" />
      <path
         d="m 88.248472,265.31054 v 33.64378 h -4.352516 v -33.64378 z"
         style="stroke-width:1.00382364"
         id="path47" />
      <path
         d="m 95.518358,298.95432 v -25.90336 q 0,-8.96383 10.163712,-8.96383 2.79973,0 5.27008,0.94108 v 3.52907 q -2.32919,-0.94109 -5.2936,-0.94109 -5.787675,0 -5.787675,5.24655 v 1.3881 h 7.646315 v 3.52907 h -7.646315 v 21.17441 z"
         style="stroke-width:1.00382364"
         id="path49" />
      <path
         d="m 111.04625,298.95432 v -24.70348 h 2.94089 l 0.7764,3.15264 q 3.24674,-3.15264 7.811,-3.15264 v 3.62318 q -4.4231,0 -7.17577,3.1291 v 17.9512 z"
         style="stroke-width:1.00382364"
         id="path51" />
      <path
         d="m 131.77365,274.25084 v 24.70348 h -4.35252 v -24.70348 z m 0,-8.9403 v 4.11724 h -4.35252 v -4.11724 z"
         style="stroke-width:1.00382364"
         id="path53" />
      <path
         d="m 149.46604,274.25084 q 10.54015,0 10.54015,10.42251 0,1.48221 -0.21175,3.17617 h -17.33948 q 0,7.57573 8.84619,7.57573 4.21136,0 7.48163,-0.94109 v 3.52907 q -3.27027,0.94109 -7.95217,0.94109 -12.72817,0 -12.72817,-12.63407 0,-12.06941 11.3636,-12.06941 z m -7.01108,9.9755 h 13.3634 q -0.14116,-6.49348 -6.35232,-6.49348 -6.5876,0 -7.01108,6.49348 z"
         style="stroke-width:1.00382364"
         id="path55" />
      <path
         d="m 165.91149,298.95432 v -24.70348 h 2.94089 l 0.77639,3.15264 q 3.78787,-3.15264 8.3286,-3.15264 9.24616,0 9.24616,9.1991 v 15.50438 h -4.35252 v -15.57496 q 0,-5.50534 -5.48182,-5.50534 -3.74081,0 -7.10519,3.1291 v 17.9512 z"
         style="stroke-width:1.00382364"
         id="path57" />
      <path
         d="m 210.82475,279.28565 q -2.63504,-1.27047 -6.02294,-1.27047 -7.4581,0 -7.4581,7.92864 0,9.38732 7.4581,9.38732 3.3879,0 6.02294,-0.91756 z m 4.35252,18.18646 q -4.49368,1.48221 -11.08128,1.48221 -11.03422,0 -11.03422,-12.84581 0,-11.85767 11.71651,-11.85767 3.19969,0 6.04647,1.17636 v -10.11666 h 4.35252 z"
         style="stroke-width:1.00382364"
         id="path59" />
      <path
         d="m 222.04719,297.77796 v -3.76434 q 4.35251,1.41163 8.79914,1.41163 5.9053,0 5.9053,-3.52907 0,-3.2938 -4.11724,-3.2938 h -3.52907 q -7.99922,0 -7.99922,-7.2934 0,-7.05814 10.28135,-7.05814 4.4231,0 8.77562,1.17636 v 3.76434 q -4.35252,-1.41163 -8.77562,-1.41163 -6.1641,0 -6.1641,3.52907 0,3.29379 3.88197,3.29379 h 3.52907 q 8.46976,0 8.46976,7.29341 0,7.05814 -10.25782,7.05814 -4.44663,0 -8.79914,-1.17636 z"
         style="stroke-width:1.00382364"
         id="path61" />
    </g>
  </g>
</svg>
